Coordinates
version=1
nRows=5
nColumns=40
inDegrees=yes

Units are S.I. units (second, meters, Newtons, ...)
Angles are in degrees.

endheader
time	pelvis_tilt	pelvis_list	pelvis_rotation	pelvis_tx	pelvis_ty	pelvis_tz	hip_flexion_r	hip_adduction_r	hip_rotation_r	knee_angle_r	knee_angle_r_beta	ankle_angle_r	subtalar_angle_r	mtp_angle_r	hip_flexion_l	hip_adduction_l	hip_rotation_l	knee_angle_l	knee_angle_l_beta	ankle_angle_l	subtalar_angle_l	mtp_angle_l	lumbar_extension	lumbar_bending	lumbar_rotation	arm_flex_r	arm_add_r	arm_rot_r	elbow_flex_r	pro_sup_r	wrist_flex_r	wrist_dev_r	arm_flex_l	arm_add_l	arm_rot_l	elbow_flex_l	pro_sup_l	wrist_flex_l	wrist_dev_l
     39.58750000	     -3.02313789	     -4.37590474	      0.54323961	      1.11240880	      0.91768066	      0.47629587	     23.64377664	      0.24596620	    -13.43193486	     25.07783390	     25.07783390	      6.22504642	     -4.44687418	     -2.69166284	      3.06878263	    -12.14282064	     -9.11421435	     44.11148510	     44.11148510	      8.35483282	    -15.18623706	    -10.81949556	     -8.75870999	      7.33004192	      1.82667407	    -12.45869963	    -10.11283896	    -21.58158489	     19.80815958	     47.74878353	      0.00000000	      0.00000000	     19.22590951	    -16.32038770	     -8.88203863	     95.97127807	     48.37292583	      0.00000000	      0.00000000
     39.59885714	     -3.09717915	     -4.35095878	      0.90970583	      1.11248310	      0.91881870	      0.47812093	     22.94774846	      0.19993220	    -14.00464917	     24.96460947	     24.96460947	      7.16264405	     -3.76026263	     -2.21437122	      5.43944191	    -12.36890278	     -7.64319591	     48.29172780	     48.29172780	      8.16023047	    -16.06203750	     -5.59295105	     -8.52364447	      7.29696757	      1.65778445	    -10.80940066	    -10.35682634	    -20.78535385	     19.79581456	     47.67529447	      0.00000000	      0.00000000	     17.93735688	    -15.46690884	     -9.27478558	     94.19247210	     48.37534894	      0.00000000	      0.00000000
     39.61021429	     -3.06509205	     -4.54359175	      1.27713864	      1.11247271	      0.91990279	      0.48010628	     22.05287510	      0.49952504	    -14.43121497	     24.62149570	     24.62149570	      7.73678805	     -3.58582346	     -2.34334773	      7.57131791	    -12.97238242	     -6.58784039	     51.87462425	     51.87462425	      6.70448499	    -16.94682026	     -4.67750028	     -8.52019969	      7.45283121	      1.78824081	     -9.31387023	    -10.52406968	    -20.66716338	     20.43510791	     47.64783700	      0.00000000	      0.00000000	     16.62886078	    -14.85051415	     -8.79157504	     93.06689561	     48.31754958	      0.00000000	      0.00000000
     39.62157143	     -3.08573405	     -4.50934376	      1.66773837	      1.11214180	      0.92098083	      0.48168793	     21.25727244	      0.48843868	    -14.92651187	     24.34304736	     24.34304736	      8.23972339	     -3.11430043	     -2.61435146	      9.93463108	    -13.06927709	     -5.32053150	     55.43237954	     55.43237954	      6.97842534	    -17.36379081	      0.18639589	     -8.34968702	      7.40623780	      1.67542320	     -7.62412624	    -10.70964922	    -20.25149757	     21.28420304	     47.57422988	      0.00000000	      0.00000000	     15.64911496	    -14.26997144	     -8.49182376	     89.92952635	     48.24055775	      0.00000000	      0.00000000
     39.63292857	     -3.05245621	     -4.60535159	      2.08404252	      1.11166375	      0.92205439	      0.48322054	     20.34894168	      0.68612901	    -15.33396747	     23.90766816	     23.90766816	      8.65160846	     -2.94691459	     -2.80558862	     12.24945691	    -13.31931009	     -4.19147407	     58.59506675	     58.59506675	      7.41031696	    -17.49189843	      4.26311501	     -8.34135503	      7.49052825	      1.98616182	     -6.13393422	    -10.95250755	    -19.79604931	     22.17166781	     47.49076185	      0.00000000	      0.00000000	     14.81906732	    -13.43736889	     -7.78969269	     87.38489346	     48.15071249	      0.00000000	      0.00000000
